bicep_curl
version=1
nRows=268
nColumns=3
inDegrees=yes

# SIMM Motion File Header:
name bicep_curl
datacolumns 3
datarows 268
otherdata 1
range 0.0000 0.2670
endheader
time	/jointset/r_shoulder/r_shoulder_elev/value	/jointset/r_elbow/r_elbow_flex/value
0.0000	0.0000	117.4600
0.0010	0.0000	117.3065
0.0020	0.0000	117.1522
0.0030	0.0000	116.9972
0.0040	0.0000	116.8414
0.0050	0.0000	116.6848
0.0060	0.0000	116.5275
0.0070	0.0000	116.3693
0.0080	0.0000	116.2105
0.0090	0.0000	116.0508
0.0100	0.0000	115.8904
0.0110	0.0000	115.7292
0.0120	0.0000	115.5673
0.0130	0.0000	115.4046
0.0140	0.0000	115.2411
0.0150	0.0000	115.0768
0.0160	0.0000	114.9118
0.0170	0.0000	114.7461
0.0180	0.0000	114.5795
0.0190	0.0000	114.4122
0.0200	0.0000	114.2441
0.0210	0.0000	114.0753
0.0220	0.0000	113.9056
0.0230	0.0000	113.7353
0.0240	0.0000	113.5641
0.0250	0.0000	113.3922
0.0260	0.0000	113.2195
0.0270	0.0000	113.0461
0.0280	0.0000	112.8718
0.0290	0.0000	112.6968
0.0300	0.0000	112.5211
0.0310	0.0000	112.3446
0.0320	0.0000	112.1673
0.0330	0.0000	111.9892
0.0340	0.0000	111.8104
0.0350	0.0000	111.6308
0.0360	0.0000	111.4505
0.0370	0.0000	111.2693
0.0380	0.0000	111.0874
0.0390	0.0000	110.9048
0.0400	0.0000	110.7214
0.0410	0.0000	110.5372
0.0420	0.0000	110.3522
0.0430	0.0000	110.1665
0.0440	0.0000	109.9800
0.0450	0.0000	109.7927
0.0460	0.0000	109.6047
0.0470	0.0000	109.4159
0.0480	0.0000	109.2263
0.0490	0.0000	109.0360
0.0500	0.0000	108.8449
0.0510	0.0000	108.6531
0.0520	0.0000	108.4604
0.0530	0.0000	108.2670
0.0540	0.0000	108.0729
0.0550	0.0000	107.8779
0.0560	0.0000	107.6822
0.0570	0.0000	107.4858
0.0580	0.0000	107.2885
0.0590	0.0000	107.0905
0.0600	0.0000	106.8918
0.0610	0.0000	106.6922
0.0620	0.0000	106.4919
0.0630	0.0000	106.2908
0.0640	0.0000	106.0890
0.0650	0.0000	105.8864
0.0660	0.0000	105.6830
0.0670	0.0000	105.4789
0.0680	0.0000	105.2740
0.0690	0.0000	105.0683
0.0700	0.0000	104.8619
0.0710	0.0000	104.6547
0.0720	0.0000	104.4467
0.0730	0.0000	104.2380
0.0740	0.0000	104.0285
0.0750	0.0000	103.8182
0.0760	0.0000	103.6071
0.0770	0.0000	103.3953
0.0780	0.0000	103.1828
0.0790	0.0000	102.9694
0.0800	0.0000	102.7553
0.0810	0.0000	102.5404
0.0820	0.0000	102.3248
0.0830	0.0000	102.1084
0.0840	0.0000	101.8912
0.0850	0.0000	101.6732
0.0860	0.0000	101.4545
0.0870	0.0000	101.2350
0.0880	0.0000	101.0148
0.0890	0.0000	100.7938
0.0900	0.0000	100.5720
0.0910	0.0000	100.3494
0.0920	0.0000	100.1261
0.0930	0.0000	99.9020
0.0940	0.0000	99.6772
0.0950	0.0000	99.4516
0.0960	0.0000	99.2252
0.0970	0.0000	98.9980
0.0980	0.0000	98.7701
0.0990	0.0000	98.5414
0.1000	0.0000	98.3120
0.1010	0.0000	98.0818
0.1020	0.0000	97.8508
0.1030	0.0000	97.6190
0.1040	0.0000	97.3865
0.1050	0.0000	97.1532
0.1060	0.0000	96.9191
0.1070	0.0000	96.6843
0.1080	0.0000	96.4487
0.1090	0.0000	96.2124
0.1100	0.0000	95.9752
0.1110	0.0000	95.7374
0.1120	0.0000	95.4987
0.1130	0.0000	95.2593
0.1140	0.0000	95.0191
0.1150	0.0000	94.7781
0.1160	0.0000	94.5364
0.1170	0.0000	94.2939
0.1180	0.0000	94.0506
0.1190	0.0000	93.8066
0.1200	0.0000	93.5618
0.1210	0.0000	93.3162
0.1220	0.0000	93.0699
0.1230	0.0000	92.8228
0.1240	0.0000	92.5749
0.1250	0.0000	92.3263
0.1260	0.0000	92.0769
0.1270	0.0000	91.8267
0.1280	0.0000	91.5758
0.1290	0.0000	91.3241
0.1300	0.0000	91.0716
0.1310	0.0000	90.8184
0.1320	0.0000	90.5644
0.1330	0.0000	90.3096
0.1340	0.0000	90.0541
0.1350	0.0000	89.7978
0.1360	0.0000	89.5407
0.1370	0.0000	89.2829
0.1380	0.0000	89.0243
0.1390	0.0000	88.7649
0.1400	0.0000	88.5048
0.1410	0.0000	88.2439
0.1420	0.0000	87.9822
0.1430	0.0000	87.7198
0.1440	0.0000	87.4565
0.1450	0.0000	87.1926
0.1460	0.0000	86.9278
0.1470	0.0000	86.6623
0.1480	0.0000	86.3960
0.1490	0.0000	86.1290
0.1500	0.0000	85.8612
0.1510	0.0000	85.5926
0.1520	0.0000	85.3233
0.1530	0.0000	85.0532
0.1540	0.0000	84.7823
0.1550	0.0000	84.5106
0.1560	0.0000	84.2382
0.1570	0.0000	83.9650
0.1580	0.0000	83.6911
0.1590	0.0000	83.4164
0.1600	0.0000	83.1409
0.1610	0.0000	82.8646
0.1620	0.0000	82.5876
0.1630	0.0000	82.3098
0.1640	0.0000	82.0313
0.1650	0.0000	81.7520
0.1660	0.0000	81.4719
0.1670	0.0000	81.1910
0.1680	0.0000	80.9094
0.1690	0.0000	80.6270
0.1700	0.0000	80.3439
0.1710	0.0000	80.0600
0.1720	0.0000	79.7753
0.1730	0.0000	79.4898
0.1740	0.0000	79.2036
0.1750	0.0000	78.9166
0.1760	0.0000	78.6288
0.1770	0.0000	78.3403
0.1780	0.0000	78.0510
0.1790	0.0000	77.7610
0.1800	0.0000	77.4701
0.1810	0.0000	77.1786
0.1820	0.0000	76.8862
0.1830	0.0000	76.5931
0.1840	0.0000	76.2992
0.1850	0.0000	76.0045
0.1860	0.0000	75.7091
0.1870	0.0000	75.4129
0.1880	0.0000	75.1159
0.1890	0.0000	74.8182
0.1900	0.0000	74.5197
0.1910	0.0000	74.2204
0.1920	0.0000	73.9204
0.1930	0.0000	73.6196
0.1940	0.0000	73.3180
0.1950	0.0000	73.0157
0.1960	0.0000	72.7126
0.1970	0.0000	72.4087
0.1980	0.0000	72.1041
0.1990	0.0000	71.7987
0.2000	0.0000	71.4925
0.2010	0.0000	71.1856
0.2020	0.0000	70.8779
0.2030	0.0000	70.5694
0.2040	0.0000	70.2602
0.2050	0.0000	69.9502
0.2060	0.0000	69.6394
0.2070	0.0000	69.3279
0.2080	0.0000	69.0156
0.2090	0.0000	68.7025
0.2100	0.0000	68.3887
0.2110	0.0000	68.0741
0.2120	0.0000	67.7587
0.2130	0.0000	67.4426
0.2140	0.0000	67.1256
0.2150	0.0000	66.8080
0.2160	0.0000	66.4895
0.2170	0.0000	66.1703
0.2180	0.0000	65.8503
0.2190	0.0000	65.5296
0.2200	0.0000	65.2081
0.2210	0.0000	64.8858
0.2220	0.0000	64.5628
0.2230	0.0000	64.2390
0.2240	0.0000	63.9144
0.2250	0.0000	63.5890
0.2260	0.0000	63.2629
0.2270	0.0000	62.9360
0.2280	0.0000	62.6084
0.2290	0.0000	62.2800
0.2300	0.0000	61.9508
0.2310	0.0000	61.6208
0.2320	0.0000	61.2901
0.2330	0.0000	60.9586
0.2340	0.0000	60.6264
0.2350	0.0000	60.2934
0.2360	0.0000	59.9596
0.2370	0.0000	59.6250
0.2380	0.0000	59.2897
0.2390	0.0000	58.9536
0.2400	0.0000	58.6168
0.2410	0.0000	58.2792
0.2420	0.0000	57.9408
0.2430	0.0000	57.6016
0.2440	0.0000	57.2617
0.2450	0.0000	56.9210
0.2460	0.0000	56.5795
0.2470	0.0000	56.2373
0.2480	0.0000	55.8943
0.2490	0.0000	55.5506
0.2500	0.0000	55.2061
0.2510	0.0000	54.8608
0.2520	0.0000	54.5147
0.2530	0.0000	54.1679
0.2540	0.0000	53.8203
0.2550	0.0000	53.4719
0.2560	0.0000	53.1228
0.2570	0.0000	52.7729
0.2580	0.0000	52.4222
0.2590	0.0000	52.0708
0.2600	0.0000	51.7186
0.2610	0.0000	51.3656
0.2620	0.0000	51.0119
0.2630	0.0000	50.6574
0.2640	0.0000	50.3022
0.2650	0.0000	49.9461
0.2660	0.0000	49.5893
0.2670	0.0000	49.2318
